# xmcd
#
# Track frame offsets:
#	150
#	9667
#	24266
#	35719
#	48169
#	58792
#	76943
#	87264
#	99147
#	112057
#	125265
#	138915
#	152190
#
# Disc length: 2258 seconds
# Revision: 0
# Processed by: cddbd v1.5.2PL0 Copyright (c) Steve Scherf et al.
# Submitted via: dBpowerAMP V12.0
#
DISCID=9b08d00d
DTITLE=Mark Kuykendall, Bobby Hicks and Asheville Bluegrass - Down Memory Lane
DYEAR=2015
DGENRE=Country
TTITLE0=Sweetheart of the Mountains
TTITLE1=I Wonder Why You Said Goodbye
TTITLE2=You Go to Your Church
TTITLE3=End of Memory Lane
TTITLE4=Never Again
TTITLE5=On the Evening Train
TTITLE6=Old Mountain Home
TTITLE7=Girl of My Dreams
TTITLE8=Coming Home Never to Part
TTITLE9=Jesus Rescued My Soul
TTITLE10=Will You Wait for Me
TTITLE11=Love and Wealth
TTITLE12=A Beautiful Life
EXTD=
EXTT0=
EXTT1=
EXTT2=
EXTT3=
EXTT4=
EXTT5=
EXTT6=
EXTT7=
EXTT8=
EXTT9=
EXTT10=
EXTT11=
EXTT12=
PLAYORDER=
